<?xml version="1.0" encoding="iso-8859-1"?>
<!-- Generator: Adobe Illustrator 18.1.1, SVG Export Plug-In . SVG Version: 6.00 Build 0)  -->
<svg version="1.1" id="Capa_1" xmlns="http://www.w3.org/2000/svg" xmlns:xlink="http://www.w3.org/1999/xlink" x="0px" y="0px"
	 viewBox="0 0 40.876 40.876" style="enable-background:new 0 0 40.876 40.876;" xml:space="preserve">
<g>
	<path style="fill:#010002;" d="M39.411,32.34l-7.389-7.389c1.259-2.373,1.979-5.077,1.979-7.951c0-9.389-7.611-17-17-17
		s-17,7.611-17,17s7.611,17,17,17c2.874,0,5.577-0.72,7.951-1.978l7.389,7.389c0.976,0.977,2.256,1.465,3.535,1.465
		s2.56-0.488,3.535-1.465C41.364,37.458,41.364,34.292,39.411,32.34z M18.565,27.601c-0.306,0.105-0.683,0.209-1.123,0.258
		c-0.441,0.067-0.949,0.129-1.499,0.099c-0.279-0.013-0.569-0.026-0.869-0.039c-0.296-0.051-0.602-0.103-0.916-0.157
		c-0.642-0.097-1.271-0.349-1.942-0.582c-0.631-0.306-1.316-0.599-1.915-1.045c-0.642-0.389-1.191-0.919-1.761-1.423
		c-0.503-0.57-1.031-1.121-1.42-1.763c-0.443-0.601-0.739-1.283-1.043-1.916c-0.233-0.671-0.484-1.301-0.581-1.942
		C5.44,18.774,5.38,18.47,5.339,18.175c-0.017-0.303-0.035-0.591-0.039-0.868c-0.029-0.543,0.029-1.072,0.095-1.521
		c0.036-0.224,0.06-0.43,0.103-0.617c0.056-0.178,0.108-0.341,0.155-0.489c0.192-0.59,0.348-0.93,0.348-0.93s0.19,0.322,0.441,0.89
		c0.111,0.291,0.286,0.63,0.479,0.971c0.183,0.35,0.361,0.726,0.616,1.138c0.112,0.203,0.228,0.414,0.348,0.632
		c0.133,0.207,0.271,0.422,0.412,0.642c0.243,0.45,0.607,0.863,0.886,1.322c0.358,0.418,0.658,0.88,1.043,1.292
		c0.349,0.438,0.758,0.831,1.139,1.247c0.417,0.381,0.811,0.787,1.249,1.136c0.414,0.382,0.873,0.686,1.293,1.041
		c0.459,0.279,0.872,0.643,1.322,0.885c0.22,0.142,0.434,0.279,0.642,0.412c0.218,0.121,0.429,0.237,0.632,0.349
		c0.405,0.254,0.801,0.437,1.159,0.62c0.357,0.194,0.679,0.367,0.954,0.478c0.549,0.253,0.885,0.445,0.885,0.445
		S19.175,27.408,18.565,27.601z"/>
</g>
<g>
</g>
<g>
</g>
<g>
</g>
<g>
</g>
<g>
</g>
<g>
</g>
<g>
</g>
<g>
</g>
<g>
</g>
<g>
</g>
<g>
</g>
<g>
</g>
<g>
</g>
<g>
</g>
<g>
</g>
</svg>
